<svg xmlns="http://www.w3.org/2000/svg" xmlns:xlink="http://www.w3.org/1999/xlink" viewBox="0 0 232.73 91.98"><defs><style>.cls-1{fill:none;}.cls-2{fill:#767779;}.cls-3{fill:#e93b61;}.cls-4{fill:#ffd500;}.cls-5{fill:#f39200;}.cls-6{fill:#003063;}.cls-7{clip-path:url(#clip-path);}.cls-8{fill:url(#Unbenannter_Verlauf);}.cls-9{fill:#fff;}.cls-10{fill:#dd0741;}</style><clipPath id="clip-path"><path class="cls-1" d="M85.15,82.4h0M95.76,61.51c0-.07.11-.17.15-.24a14.76,14.76,0,0,1-1.32,3l-.46.71c-.76,1.14-2.24,1.39-3.07,2.45-.2-.11-.25-.15-.58,0-.09-.51.74-1.21.08-1.53a19.58,19.58,0,0,1,2.85-3.83.42.42,0,0,0,.45.36,4.39,4.39,0,0,0,1.9-1m-7.44,4.6c-3.87,3.16-.52,2.24-.48,2.22a4.3,4.3,0,0,0,.86-.47c-3.65,4.06-14.06,8.56-21.76,5.35-2-.85-3.43-1.36.46,1a.28.28,0,0,1-.12,0c1.65.83,3.7,2,2.67,2a.58.58,0,0,1,0,.07h0l0,0s0,0,2.85,1.08c-.17.07-.32.68,2,.92a19.71,19.71,0,0,0,7.5-.7c-4.81,3.33-10.4,5.46-15.93,4.38l.49.19a11.68,11.68,0,0,0,3.39.72c0,.06,0,.14,0,.22a3.08,3.08,0,0,0,2.29.07c.51-.26.71-.31,4-.56-.73.6-1.77.32-2.54.84a.61.61,0,0,0,.2.31c4.19-.57,8.51-1.16,19.21-9.87a2,2,0,0,1,.47-.27l0,0c-.78.75-.78.75-7.45,6.4-1.59,1.35-3.89,1.5-5.38,3,0,.06,0,.13.06.19l0,0,.07,0a2.81,2.81,0,0,0,1,0c-.66.27-1.46.61-2.45,1.05,0,.05-.05,0,0,.35,1.89-.43,5.63-.92,8.1-2.4,3.67-2,10.61-8.12,13.83-14.79A1.3,1.3,0,0,1,102,67v.18h0c.12.24.12.24-.22,1.45a11.4,11.4,0,0,0,.63-1.73c.61-5.56-3.05-7.6-3.9-8a10.53,10.53,0,0,0-1.39-.52h0l-.12,0a17.16,17.16,0,0,0-2.38-.49,19.94,19.94,0,0,1-6.35,8.21"/></clipPath><linearGradient id="Unbenannter_Verlauf" x1="-182.62" y1="280.52" x2="-181.62" y2="280.52" gradientTransform="matrix(36.67, 0, 0, -36.67, 6762.07, 10358.45)" gradientUnits="userSpaceOnUse"><stop offset="0" stop-color="#0086cd"/><stop offset="0.41" stop-color="#0084cb"/><stop offset="0.56" stop-color="#007fc4"/><stop offset="0.68" stop-color="#0075b8"/><stop offset="0.77" stop-color="#0067a7"/><stop offset="0.85" stop-color="#005591"/><stop offset="0.92" stop-color="#003f76"/><stop offset="0.96" stop-color="#003063"/><stop offset="1" stop-color="#003063"/></linearGradient></defs><title>red-bull-media-house</title><g id="Ebene_2" data-name="Ebene 2"><g id="Ebene_1-2" data-name="Ebene 1"><path class="cls-2" d="M106.6,72c-1-.53-1.86.23-2.35,1.12a26.31,26.31,0,0,1-7.51,8.95,33.74,33.74,0,0,1-19.24,6.21A32.69,32.69,0,0,1,44.78,56.13l.05,0V35.86a3.93,3.93,0,0,0-7.86,0V56.09H7.86V35.86a3.93,3.93,0,0,0-7.86,0V87.29a3.93,3.93,0,0,0,7.86,0V63.95H37l.14-.14C41.06,79.94,56.59,92,75.16,92A41,41,0,0,0,97,85.76a27.84,27.84,0,0,0,10-11.08c.57-1.12.57-2.14-.45-2.67m37.84-40.54a4,4,0,0,0-3.93,4h0V70.06h0s0,0,0,.1a24.94,24.94,0,0,1-1.76,7.76,10.13,10.13,0,0,1-3,3.94,10.28,10.28,0,0,1-5.93,1.63h0a12.36,12.36,0,0,1-6-1.92,9.76,9.76,0,0,1-3.15-3.77,32.44,32.44,0,0,1-2-6.7l-3.26-14c-1.92-8.8-5.91-13.25-5.91-13.25-5.38-7.43-15.68-10.71-15.68-10.71a46.26,46.26,0,0,0-13.47-1.89c-10.57,0-20.11,4.15-26,11.95-.71.94-.77,2,.23,2.64s1.81,0,2.6-.92A28.41,28.41,0,0,1,78.64,34.55c1,0,2,0,3.08.15a33.18,33.18,0,0,1,14,4.42c4.95,3.09,10.39,7.92,12.86,20.16l3.38,17.28a21.44,21.44,0,0,0,2,5.35,17.65,17.65,0,0,0,9.49,8.34,19.89,19.89,0,0,0,6.37,1.18h.1a17.8,17.8,0,0,0,11-3.58,20.7,20.7,0,0,0,6.61-11.29,30,30,0,0,0,.87-6.34c0-.06,0-.11,0-.17V35.44a4,4,0,0,0-3.93-4m37,26.18a20.06,20.06,0,0,0-5.27-.84h-5.42a9.54,9.54,0,0,1-5.33-1.32A7.91,7.91,0,0,1,162.23,51a12,12,0,0,1-.45-2.11c0-.26,0-.47-.05-.6s0-.08,0-.1h0a8.6,8.6,0,0,1,1.22-4.86,7.31,7.31,0,0,1,4.12-2.87,11.36,11.36,0,0,1,2-.42l.55,0h14.06a3.93,3.93,0,0,0,0-7.86h-14a18.21,18.21,0,0,0-7.72,1.94,14.43,14.43,0,0,0-5.58,5,16.46,16.46,0,0,0-2.49,9.16c0,.1,0,.2,0,.3a19,19,0,0,0,2,7.77,15,15,0,0,0,5.19,5.79,17.37,17.37,0,0,0,9.58,2.58h5.42A13.23,13.23,0,0,1,181.2,66a7.43,7.43,0,0,1,2.86,2.5,9,9,0,0,1,1.3,5.08h0s0,.13,0,.41a12,12,0,0,1-1.69,5.36,6.89,6.89,0,0,1-2.47,2.32,9.75,9.75,0,0,1-4.82,1.06h-20.2a3.93,3.93,0,1,0,0,7.86h20.2A17.12,17.12,0,0,0,185.95,88a16,16,0,0,0,6.39-8.9,20.15,20.15,0,0,0,.88-5.4s0-.06,0-.09v0a16.72,16.72,0,0,0-2.75-9.63,16.42,16.42,0,0,0-9.09-6.29m47.79,25.19H212.31c-4.66,0-6.46-1.26-6.46-3.61,0-.29,0-15.35,0-15.35h22.57a3.93,3.93,0,0,0,0-7.83H205.85V42.81c0-2.19,1.19-3,3.25-3h20a3.72,3.72,0,0,0,0-7.42H209.49c-1-.05-5.35-.22-8.39,2.51a9.28,9.28,0,0,0-3,7.21V79.91A9.7,9.7,0,0,0,201,86.56c2.51,2.52,6.41,3.94,11.33,3.94h16.87a3.84,3.84,0,0,0,0-7.67"/><path class="cls-3" d="M26.11,10.3a8.3,8.3,0,0,0,0,16.59,8.32,8.32,0,0,0,7.54-4l-4-1.86a3.4,3.4,0,0,1-3.11,1.88,3.24,3.24,0,0,1-3.37-3.09c0-.11,0-.07,0-.17h11a9.62,9.62,0,0,0,0-1c.08-5.37-3.48-8.31-8-8.31m-3,6.5a3,3,0,0,1,6.06,0Zm-6.07-8A7.4,7.4,0,0,0,9.58,1.51H.06V26.34H5.33V5.8l3.15,0A3.31,3.31,0,0,1,11.91,9a3.4,3.4,0,0,1-3.53,3.25l-1.22,0v5.91l5.27,8.13h6.22L11.36,16a7.36,7.36,0,0,0,5.69-7.12m31.8,3.54a7.06,7.06,0,0,0-5-2.09c-4.09,0-7.41,3.63-7.41,8.11s3.32,8.11,7.41,8.11a7,7,0,0,0,5-2.15v2H53.8V.07H48.85ZM45.27,22.54a3.82,3.82,0,0,1-3.64-4,3.65,3.65,0,1,1,7.28,0,3.82,3.82,0,0,1-3.64,4m62.13,3.84h5V.27h-5Zm-16-6.28a2.84,2.84,0,0,1-5.67,0V11.16H80.82v9.89c0,3.35,3.46,6.06,7.74,6.06s7.74-2.72,7.74-6.06V11.16H91.41ZM99,26.38h5V.27H99ZM74.75,12.83A6.59,6.59,0,0,0,76.94,8a6.47,6.47,0,0,0-1.79-4.46C74,2.24,71.88,1.66,69,1.66H60.58V26.36H71.52a7.44,7.44,0,0,0,7.57-7.14c0-2.82-1-4.84-4.34-6.39M70.6,22H65.86V5.93h3.31a2.63,2.63,0,1,1,0,5.26H67.45v4.46H70.6a3.19,3.19,0,0,1,0,6.38"/><path class="cls-4" d="M101.69,70.24l.11-.3,0-.15Zm-19-13.68a2.28,2.28,0,0,0-.49.25h.05c.28,0,.28,0,1.43-.39l.09,0a4.3,4.3,0,0,0-1.07.16M70.5,66h0l-1.81,1c.52-.32,1.24-.72,1.78-1M80.64,54.91a.32.32,0,0,1-.14,0h0l.15,0m5.19-1.15-.11,0-.2,0,.31-.05m.61-.08h-.18q1.31-.24,2.38-.36l-.6.21a1.83,1.83,0,0,0-.32.07.08.08,0,0,1-.08.06l-.11,0a4,4,0,0,1-.65,0h-.44M69.83,44.21a31,31,0,0,0-10,5.94,11.51,11.51,0,0,1-3.24,2.27h0c-.16.36-.35.86-.51,1.22-.28.77-.43,1.17-.57,1.68a.29.29,0,0,0,0,.12c.23,0,.67-.23,2.29-1.21a63.77,63.77,0,0,1,7-3.86,3.42,3.42,0,0,1-1.44,1.94c-.25.16-.56.39-.82.54-1,.55-2,1-2.92,1.54-1.13.64-2.21,1.37-3.33,2l-.35.18c-.45.21-.7.1-.69-.31,0,0,0-.05,0-.09l-.19.75a27.45,27.45,0,0,0-.58,4.81,20.88,20.88,0,0,0,.83,6.47,1.15,1.15,0,0,0,0,.13l.27.05a11.27,11.27,0,0,0,.45,1.75c.49.35.3,1,.59,1.38a1.61,1.61,0,0,1,.52-.1L57,71.5a6.41,6.41,0,0,0,.82.23c0,.9,0,.9.09,1.11l.25-.17c1.38.3,1.38.3,2.09-.28l.58-.5c-.58.68-.58.68-.53,1.17.42.06.42.06,8.8-5.77h0c3.74-2.12,7.28-4.56,11-6.72-2.78.82-5.19,2.45-7.82,3.57l-2.33,1.36,0-.05s-.11-.25-.18-.27h-.25a1.21,1.21,0,0,0-.59-.05.47.47,0,0,0-.14.07l-.21.1c-.08,0-.14.08-.22.1a.67.67,0,0,1-.29,0h-.15a1.32,1.32,0,0,1-.27,0c-.06-.06,0-.2.05-.25a.67.67,0,0,0,0-.17.08.08,0,0,1,.08-.06.29.29,0,0,0,.05-.11,1.1,1.1,0,0,1,.38-.38l.55-.37a2.54,2.54,0,0,1,.64-.37l.25,0c.1,0,.1-.07.15-.16s.05-.06,0-.11a1.43,1.43,0,0,0-.33-.15l0,0,0,0c-.09,0-.06,0-.14,0a1.47,1.47,0,0,0-.28.14,3,3,0,0,1-.32.19.92.92,0,0,0-.17.2l-.92.58-.06,0c-.08,0-.14,0-.21,0s-.41.13-.61.18a1.14,1.14,0,0,0-.45.15,1.43,1.43,0,0,0-.13.14,1.52,1.52,0,0,1-.34.26.6.6,0,0,1-.36.06h-.09a.34.34,0,0,1-.16,0h0s0,0,0,0a.27.27,0,0,1,0-.11c0-.08.14-.11.17-.21s-.38,0-.49,0a3.6,3.6,0,0,0-.66.24c-.18.09-.37.11-.54.2s-.38,0-.64,0a.27.27,0,0,1,0-.19c0-.06.1-.1.14-.16a.2.2,0,0,0,0-.06l.26-.29c.18-.18.45-.32.64-.48s.45-.43.68-.65c0,0,.08-.07.12-.11a.07.07,0,0,0,.08,0s0-.1.07-.15a.17.17,0,0,0,.06,0,2.42,2.42,0,0,1,.32-.25.2.2,0,0,0,.11-.3c-.08,0-.11.11-.15.15a1.23,1.23,0,0,1-.34.21,2.79,2.79,0,0,1-1,.31H63.6a1.27,1.27,0,0,1-.27,0c-.06-.08.11-.3.15-.34l.21-.28a.51.51,0,0,0,.09-.15s0,0,.09-.06l.67-.41a.34.34,0,0,1,.15-.08c.05,0,.09,0,.13,0L65,61.7c.25-.17.56-.28.84-.42s.68-.49,1.07-.67a2.45,2.45,0,0,1,.37-.17,1,1,0,0,0,.24-.09A3.07,3.07,0,0,1,68,60c.2-.09.41-.16.61-.26s.1-.08.15-.11l.15,0,.27-.14.3-.13a1.28,1.28,0,0,0,.28-.13A.27.27,0,0,0,70,59c0-.05.06-.16,0-.21a1,1,0,0,0-.48.15c-.15.07-.3.1-.45.17a.84.84,0,0,0-.22.13.24.24,0,0,1-.11,0h-.06a.45.45,0,0,0-.19,0,2.2,2.2,0,0,0-.29.08,2.64,2.64,0,0,0-.55.28c-.22.12-.42.26-.65.36a5.24,5.24,0,0,1-.85.37l-.66.21c-.14,0-.28.09-.41.14a.36.36,0,0,0-.13.1.68.68,0,0,1-.26.13l-.79.31a2,2,0,0,1-.24.08,1.81,1.81,0,0,1-.36,0h-.21a1.09,1.09,0,0,1-.42-.09l-.11,0q1.06-.74,2.17-1.41c.8-.49,1.62-.95,2.46-1.38s1.78-.92,2.69-1.35,1.9-.87,2.86-1.27,2-.8,3-1.18,2-.73,3-1.06,2-.62,3-.91,1.92-.52,2.89-.75,1.82-.4,2.74-.56l1.26-.2a2.35,2.35,0,0,0,.32-.05,1.15,1.15,0,0,0,.2-.06l-.08.05.6-.07.54,0c.08,0,.5,0,.5.11s-.11.08-.17.1l-.23.1h1s.2,0,.21,0,0,.05-.07.05l-.3.21a1,1,0,0,1-.34.13l-.71.2a8.84,8.84,0,0,1-1.06.18c-.09,0-.2,0-.17.12a.82.82,0,0,0,.22,0h.86a2.11,2.11,0,0,0,.44,0,1,1,0,0,1,.31,0,3.2,3.2,0,0,1,.38.08,28.93,28.93,0,0,0-4.63.79,5.15,5.15,0,0,1-2.1.33,4.52,4.52,0,0,1,.36-.43c-.76-.11-5.3,1.45-5.6,2.26h0c-.05.13,0,.16.13.2a3.58,3.58,0,0,0,.9.07c.37,0,.73,0,1.08,0H82a7,7,0,0,0,1.54-.07c.42-.1.83-.26,1.24-.39s.8-.27,1.21-.38l.28-.09a1.22,1.22,0,0,1,.2-.08c.09,0,.11,0,.08.13s-.55.25-.67.29-.42.15-.62.23c0,.19.29.16.5.13l.2,0h.2c.08,0,0,.22,0,.28a1.12,1.12,0,0,1-.15.23.58.58,0,0,1-.24.2c0,.17,1,.08,1.15.06s.4-.18.58-.2.13,0,.21,0l.3-.05c.12,0,.22-.08.35-.09h.24c.08,0,.17,0,.26,0s.42-.12.63-.14h.31l.54-.09c.23-.06.47-.09.7-.12a5,5,0,0,1,1,0c.3,0,.6.11.9.15s-.07.28-.19.35a8,8,0,0,1-1.34.66,2,2,0,0,1-.9.2,1.34,1.34,0,0,0-.5.07,1.57,1.57,0,0,1-.32.09h-.3a3.55,3.55,0,0,0-.44,0l-.18.05h-.14a.68.68,0,0,0-.3,0c-.11,0-.11.08-.23.09H88a.69.69,0,0,0-.31,0,2,2,0,0,1-.79.12h-.1l-.05,0a5.38,5.38,0,0,1-.51.18c-.37.14-.71.35-1.1.46a1.89,1.89,0,0,1-.23,0l-.72.2c-.11,0-.23.07-.33.1a3.12,3.12,0,0,0-.5.23l-.26.12a1.2,1.2,0,0,1-.44.13l-.38.08c-.14,0-.18.11-.27.18s-.2,0-.29.09l-.55.3-.24.11a1.53,1.53,0,0,0-.35.22.57.57,0,0,0-.05.4h0a.12.12,0,0,1,0,.05,1.44,1.44,0,0,0,.67,0,.93.93,0,0,0,.26,0l.34,0a2.15,2.15,0,0,0,.63-.23l.09-.05c2.72-.61,5.29-1.88,8.12-2.07.05,0,4.74-.21,7.9,1.26,1,.45,5.72,3.1,3.28,10.84l.23-.67a23.33,23.33,0,0,0,.87-3.92v-.1a23.94,23.94,0,0,0,.16-4.34,23.26,23.26,0,0,0-1.11-6l-.08-.14c-.09-.25.76-2.33-3.86-7-2-1.87-4.81-2-7-3.37.32-.11.32-.11.8,0-1.87-1.18-4.16-.91-6.15-1.67a1.14,1.14,0,0,1,1-.3c0-.07,0-.19,0-.27a10.82,10.82,0,0,1,6.6,1.08c-.19-.14-.38-.28-.56-.43a6.07,6.07,0,0,1,1.34.8l.07.05-.18-.15c-3-2.31-7.39-5.26-20.79.16l-1-.34s-1.13.62-1.14.61"/><path class="cls-5" d="M61.24,44.56l.47-.48-.47.48m37.44,1.93-.06-.08,0,0Zm-6.16-5.67,0,0h0ZM61.23,44.58h0Zm29.5,2.34a4.65,4.65,0,0,0-1-.38,2.55,2.55,0,0,0-.5-.08l0,0a4.79,4.79,0,0,0,1.34.41l.08,0m12.76,12.25a26.17,26.17,0,0,0-1.09-5.57l-.37-1a26.07,26.07,0,0,0-2.82-5.32c-.3-.43-.32-.46-.69-.93l0,0h0a21.2,21.2,0,0,0-3.62-3.64,6.71,6.71,0,0,1,.68.5L95.38,43c-4-3.49-8-4.57-12.8-5.13a19.26,19.26,0,0,1,9.9,3,24,24,0,0,0-11-3.59c-.54,0-1.15,0-1.86-.05a27.52,27.52,0,0,0-8.43,1.52h0a35.64,35.64,0,0,0-4.46,1.73l-.16.08-.09,0-.44.22-.08,0-.28.15-.62.37h0l-.46.29-.34.24-.9.71A21,21,0,0,0,61.83,44c1.66-1.53,6.32-4.21,13.82-5.05a4.53,4.53,0,0,1-1.9.74c-3.9.89-9.78,2.24-12.48,4.88l0,0c-.28.29-.52.58-1.24,1.43a21.73,21.73,0,0,0-1.71,2.4l-.49.82c0,.07,0,.19-.06.28l.23,0-.56,2.32.92-.75a9.72,9.72,0,0,0-.61,1.5l0,0c-.08.22-.19.5-.25.72l.18.24a14.09,14.09,0,0,1,1.23-.87l-.53.37c.36-.16.86-.35,1.22-.49-.37.48-.75.92-1.11,1.39a9.36,9.36,0,0,1,1.13-.7l.16.16c.56-.07.89-.25,2.47-1.17l1-.55c-1,.63-1.12.71-1.4,1.17.35,0,.35,0,2.35-1a40.27,40.27,0,0,1,9.44-3.09h0c7.51-1.24,7.51-1.24,12.59-1.09-1.83-.37-1.83-.37-8.33-.28-6.7.75-9.37,1.76-10.53,2.2-1.89.72-1.94.71-2.29.65,1.63-1.2,9.1-3.81,11-4.08-.06,0-6,.85-9.31,2.57a28,28,0,0,1-4.14,1.63A34.53,34.53,0,0,0,65.21,48c-.76-.19-.76-.19-2.08.11,5.16-6.56,33.54-8.35,38.47,4.81a19.64,19.64,0,0,0-8-6.43c-1.21-.51-1.25-.55-1.49-.79l.21-.1c-.65-.37-3.94-1.4-5.25-1.15,4.7,1.18,12,4.64,11.82,6.48-2-.67-3.43-2.25-5.38-3,2.21,1.21,5.91,3.24,6.49,5.21l-.22.14a6.85,6.85,0,0,1-.7-.52v0a21.28,21.28,0,0,0-4.76-3.24c-2.42-1-5.08-1.25-7.58-2C89.46,48.63,92.43,49,95,50.45a20.13,20.13,0,0,1,5.38,4.82c4.07,5.51,2.46,11.13,1.86,13.24l-.5,1.34.54-1.4a23.3,23.3,0,0,0,1.22-9.29m-28-11h0c-.63.08-1.46.22-2.08.31.61-.11,1.44-.23,2.05-.31m8.74-9.83a31.9,31.9,0,0,0-3.35-.23h-.21a18.9,18.9,0,0,1,4.8.39c-.46-.07-.68-.1-1.24-.15M61.83,44l-.13.12,0,0,.09-.1m36.71,2.36,0-.05,0,0h0"/><path class="cls-6" d="M101.83,69.85c.09-.24.17-.49.25-.74l-.23.67,0,.07"/><path class="cls-6" d="M66.16,73.69a2.93,2.93,0,0,0-.68-.34l.68.34"/><g class="cls-7"><rect class="cls-8" x="62.43" y="56.23" width="41.74" height="30.16" transform="translate(-5.9 7.53) rotate(-5)"/></g><path class="cls-6" d="M102.09,68.93v-.06c0-.19.09-.38.13-.56a25,25,0,0,1-7,10.25,5.36,5.36,0,0,0,.79-.63,4.22,4.22,0,0,0-.68.78c.27-.24.5-.44.78-.65-.08.17-.08.17-1.74,1.81a24.1,24.1,0,0,0,7.27-9.66l.14-.41c.09-.29.17-.58.25-.86"/><path class="cls-6" d="M101.75,70.07l0,.09,0-.09"/><path class="cls-6" d="M67.29,74.23l-1.13-.54a4.46,4.46,0,0,0,1.13.54"/><path class="cls-5" d="M101.71,70.2v0l0-.07,0-.09.05-.14,0-.08,0-.07Z"/><path class="cls-6" d="M100.62,60.47a22.37,22.37,0,0,1-3.71,8c-.92,1.4-2.75,1.72-3.76,3-.24-.13-.32-.17-.71,0-.1-.63.91-1.48.11-1.87,1.35-3,4.43-4.81,5.38-8-.37.46-.63,1-1,1.46.42-1.42,1.06-2.76,1.37-4.21l-.22-.09-.33.6a24.48,24.48,0,0,1-8,10.47c-4.74,3.88-.64,2.74-.59,2.72a7.57,7.57,0,0,0,1.07-.58C84.6,78.24,65.69,85.39,57,73.19c.08.12.18.3.27.43,2.11,3.21,2.11,3.21,6.89,6.16-.89-.16-1.53-.85-2.37-1.11,0,0,2.05,2.67,8.13,3.37,6.49.74,8.33.25,10.28-.29a22.43,22.43,0,0,1,3.17-.61h0c-4.79,1.47-4.79,1.47-10.14,1.81a10.72,10.72,0,0,1-3-.38,11.19,11.19,0,0,0-2.88-.4.47.47,0,0,1,0,.08h-.06l.07,0s0,0,3.49,1.33c-.21.08-1.23.22-5.47-1.6,0,0,5.08,2.43,8,2.72,9.46.93,16.25-3.65,22.82-8.07,0,0,0,.08,0,.11l.26,0c0,.15,0,.15-.76,1,1.55-1.25,2.35-3.2,4-4.37-.15.69-5.28,8.93-16.7,11.58a9.39,9.39,0,0,0,1.33-.26c-.79.22-.81.24-1.14.35l1.27-.24a13.48,13.48,0,0,1-3.08.81c9.89-1.71,17.14-7.33,20.42-15.84a28,28,0,0,0,.82-3,7.78,7.78,0,0,0-1.86-6.33"/><path class="cls-9" d="M76.65,73.28a3.65,3.65,0,0,1-1.32-1.4c-.12-.2-.22-.4-.33-.6L74.88,71a5.83,5.83,0,0,0-.48-.77L74.15,70l-.27-.28c-.08-.09-.16-.17-.22-.25a.91.91,0,0,1-.13-.21,28.59,28.59,0,0,1-1.86-7.6c-.22-1.52-1.15-2.75-2.66-4.59-.19-.23-.4-.5-.62-.79l-.48-.61a15,15,0,0,0-1.22-1.39L65.25,53l-1.61-1.35a29.76,29.76,0,0,0-2.4-1.81,6.28,6.28,0,0,0-3.56-1.14,4.88,4.88,0,0,0-2.52.63,14.73,14.73,0,0,1-2.78,1.56c-.66.27-1.34.5-2.2.78l-.89.29a5.91,5.91,0,0,0-2.17,1.36l-.34.33-.35.33a1.63,1.63,0,0,1-.52.37,3.14,3.14,0,0,1-.74.11l-.55,0-.39,0a4.68,4.68,0,0,0-2.61,1.18c-.3.25-.59.5-.86.75l-.13.12a6.52,6.52,0,0,1-.82.67,4.91,4.91,0,0,1-2.38.68,11.49,11.49,0,0,0-1.34.18,7.12,7.12,0,0,0-1.62.54,13.36,13.36,0,0,0-2,1.17l-1,.69-.83.6a6.22,6.22,0,0,1-3.47,1.46,1.91,1.91,0,0,1-2.07-1.7,3,3,0,0,1,1.31-2.6l.52-.42c.39-.31.75-.6,1.08-.88a8.13,8.13,0,0,0,1.21-1.23,3.38,3.38,0,0,0,.58-3.12,3.31,3.31,0,0,0-2.59-2.29A12.25,12.25,0,0,0,25.74,50l-.17,0-.41-.07a1.82,1.82,0,0,1-.34-.09A28.45,28.45,0,0,1,22,48.09l-.14-.1-.1.14A4.23,4.23,0,0,0,21,50.52a4.15,4.15,0,0,0,3.69,4.24.35.35,0,0,1,.16.62c-2.6,2.05-3.16,2.93-3.29,5.23a5.16,5.16,0,0,0,1.38,3.84,5.82,5.82,0,0,0,4.38,1.69A10.05,10.05,0,0,0,28.8,66h.05a.35.35,0,0,1,.35.32A9.07,9.07,0,0,0,30,69.82a.35.35,0,0,1-.06.45,1.75,1.75,0,0,1-.51.29,6.7,6.7,0,0,1-2.24.35c-.52,0-.91.36-1.23,1.14-.1.25-.19.52-.27.78l0,.07c0,.13-.08.25-.12.36a1.86,1.86,0,0,1-.11.27,2.25,2.25,0,0,1-.47.56.36.36,0,0,1-.23.09h-.06a.35.35,0,0,1-.25-.18,1.74,1.74,0,0,0-1.2-.87h-.07a3.25,3.25,0,0,0-2.69,1.95.35.35,0,0,1-.29.22H20.1a1.39,1.39,0,0,0-1.26.93,4.33,4.33,0,0,0-.2.75l0,.17c0,.19-.07.4-.12.59a1.81,1.81,0,0,1-.18.44l-.12.21-.08.14a1.23,1.23,0,0,0-.1,1,.89.89,0,0,0,.49.53,3.24,3.24,0,0,0,.78.28,6.63,6.63,0,0,0,1.21.18.46.46,0,0,0,.23-.06l.16-.11a.39.39,0,0,1,.23-.08h.05l.26,0,.74.15h0l.71.14.28,0,.18,0h0a2.21,2.21,0,0,0,1.87-.89,4.12,4.12,0,0,0,.24-.37l.13-.21.09-.16c.09-.15.18-.29.28-.43a.35.35,0,0,1,.28-.14h.09l.36.08c.26,0,.49.06.59.07h.21A3.81,3.81,0,0,0,30,77.48l.21-.18.29-.25a5.27,5.27,0,0,1,.47-.36,1.5,1.5,0,0,1,.83-.3h.06c.25,0,1.19.08,2.79.33l.21,0a3.54,3.54,0,0,0,1.37-.37,11.68,11.68,0,0,0,1.3-.71,3.11,3.11,0,0,1,.35-.18l0,0,.41-.2a2.81,2.81,0,0,0,1-.75,7.88,7.88,0,0,0,.67-1.19l.26-.53.45-.92a.36.36,0,0,1,.32-.19H41a12.09,12.09,0,0,0,1.6-.15l.66-.1a11.82,11.82,0,0,1,1.19-.15l.56,0,.63,0c.8,0,1.45.07,2,.07.32,0,.6,0,.84,0a5.25,5.25,0,0,0,1.13-.19l.28-.1a.33.33,0,0,1,.14,0,.35.35,0,0,1,.24.1l.54.5A.35.35,0,0,1,51,72a.36.36,0,0,1-.3.24l-.21,0a1.33,1.33,0,0,0-.83.38.35.35,0,0,1-.42.11l-.15-.05a1.17,1.17,0,0,0-.3,0h-.44a10.73,10.73,0,0,0-1.7.1,2.89,2.89,0,0,0-.93.29.75.75,0,0,0-.43.69,7.49,7.49,0,0,0,1.6,3.07,1.69,1.69,0,0,0,1,.25H48a.35.35,0,0,1,.31.19,3.51,3.51,0,0,0,2.78,2.13h.07a21.38,21.38,0,0,0,5.44-1.85l.07,0,.2,0,.36,0,.18,0a4.07,4.07,0,0,0,1.2-.28,3.69,3.69,0,0,0,1.15-1.48.35.35,0,0,1,.31-.19h0a.35.35,0,0,1,.3.25,2.08,2.08,0,0,0,.16.4,1.73,1.73,0,0,0,1.67.89h.13a6.58,6.58,0,0,0,1.66-.37l.29-.1a9,9,0,0,1,1.26-.36,2.94,2.94,0,0,1,.48,0h.26l.5,0,.34,0,.5,0a2.66,2.66,0,0,0,1.2-.23A5.52,5.52,0,0,0,70,75.36l.09-.07a.35.35,0,0,1,.2-.07.39.39,0,0,1,.23.09,6.52,6.52,0,0,0,4.36,1.64h.22a1.45,1.45,0,0,0,1.15-.49.77.77,0,0,0,.13-.67.36.36,0,0,1,0-.28.34.34,0,0,1,.23-.15,1.73,1.73,0,0,0,.86-.38.92.92,0,0,0,.32-.63.48.48,0,0,0-.16-.37,4.58,4.58,0,0,0-1.07-.69m-15.52-2.7c-.24.3-.6.39-.92,1-.65-.26-.77-1.12-.89-1.49.52-.1,1.75-.33,2.4-.43a3,3,0,0,0-.59,1"/><path class="cls-3" d="M76.13,73.86c-1.22-.71-1.7-2-2.45-3.1-.26-.38-.73-.63-1-1a27.72,27.72,0,0,1-1.85-7.46,8,8,0,0,0-.69-2,43.49,43.49,0,0,0-3.9-5c-.12-.12-.12-.13-.39-.38l-4.8-4a9.61,9.61,0,0,0-1.93-1,4.87,4.87,0,0,0-3.38.13,22.06,22.06,0,0,1-3.06,1.71c-1.58.71-3.36.85-4.72,2.07-.79.69-1.46,1.76-2.63,1.58a5.05,5.05,0,0,0-3.48,1.24,6.64,6.64,0,0,1-2.9,2c-1,.43-2.25.22-3.28.61-1.64.41-2.94,1.7-4.33,2.7-1.4.81-2.74,1.68-4.48,1.64a3,3,0,0,1-2.59-2,3.28,3.28,0,0,1,1-3.41c1-1.24,2.67-2,3.48-3.39a2.6,2.6,0,0,0-.2-2.67c-1.08-1.11-2.62-1.15-4-1.5a11.94,11.94,0,0,1-2.37-1.35,2.4,2.4,0,0,0-.36,1.54,3.69,3.69,0,0,0,2.35,2.87,12.08,12.08,0,0,0,2.25.24.67.67,0,0,1,.43.51.79.79,0,0,1-.24.55,23.41,23.41,0,0,0-3.28,3,4.49,4.49,0,0,0-.6,4.4,4.72,4.72,0,0,0,3.81,2.81,8.65,8.65,0,0,0,3.24-.35c.14,0,.2.14.26.22a21.42,21.42,0,0,0,.16,2.62A15.87,15.87,0,0,0,31,69.81a.91.91,0,0,1-.18.75,8.76,8.76,0,0,1-1.84,1l-1.58.1-.3.15a7.9,7.9,0,0,0-1,2.17A5.7,5.7,0,0,1,24,75.67a5,5,0,0,1-.85,1.1,1.53,1.53,0,0,1-.93.34,4.63,4.63,0,0,0-.81,2.35c.89.08,1.82.57,2.7.08s.91-1.26,1.48-1.8,1.12-.12,1.64,0c.79,0,1.36-.53,2-.8.46-.3.85-.83,1.33-1.13a5.54,5.54,0,0,1,3.2,0A3.42,3.42,0,0,0,36,75.54a6.77,6.77,0,0,1,1.92-1,3.07,3.07,0,0,0,1.19-1.62c.2-.54.73-1,.69-1.6-.16-.14-.35-.45-.59-.43-.31.43-.53.87-.87,1.28-1.46,2-2.62,2.19-5.59,2.19A6.91,6.91,0,0,0,27,76.64a.28.28,0,0,1-.33-.06,1.49,1.49,0,0,1,.24-.83c1.36-1.92,3.46-2.37,5.69-2.42a8.62,8.62,0,0,0,3.4-.81,5.13,5.13,0,0,0,2.43-2.64c.26-1.28.36-2.65.69-3.87,0-.12.34-.21.44-.17s.36.13.37.27c-.22,1.26-.62,2.74-.14,3.95,1,1.28,2.78.59,4.1.53a23.56,23.56,0,0,1,3.8.06c.65,0,1.13.14,1.63-.27a1.16,1.16,0,0,0,.16-.77c0-.36-.35-.58,0-.89a.46.46,0,0,1,.49.07,5.71,5.71,0,0,0,.59,1.5,7.74,7.74,0,0,0,2.5,1.95,3.35,3.35,0,0,1,1.62,2.45c0,.53-.49.89-.89,1.13a4.13,4.13,0,0,1-2.25.55c-1.08-.53-1.36-1.66-2.07-2.49A1.71,1.71,0,0,0,48,73.44a7.85,7.85,0,0,0-1.7.26.55.55,0,0,0-.16.49c.36.67.77,1.31,1.18,2,.47.28,1.11-.16,1.52.34A5.61,5.61,0,0,0,50,78.08a1.9,1.9,0,0,0,1.95.36,24.56,24.56,0,0,0,4.4-1.71h.46a2.38,2.38,0,0,0,1.6-.45,15.81,15.81,0,0,0,1.15-1.94,2,2,0,0,0,0-1.68,9.53,9.53,0,0,1-1.44-2.78,3.07,3.07,0,0,0-1-.28c-.18.08-.45,0-.55.24L58.16,73a1.68,1.68,0,0,1,.16.91,4.08,4.08,0,0,1-1.11,1.8c-.1.06-.22.12-.3,0a7.25,7.25,0,0,0,.46-2.23l-1.56-2.82c-.18-.38-.51-.73-.49-1.17a.52.52,0,0,1,.34-.42c.69-.22,1.52-.19,2-.73a7.81,7.81,0,0,0,1-3.4.49.49,0,0,1,.32-.24c.12,0,.26.14.32.2a5.27,5.27,0,0,1-.89,3.91c0,.14-.1.32.06.43a2.93,2.93,0,0,0,2.23-.35,12.24,12.24,0,0,0,2.35-.31.27.27,0,0,1,.16.2,3.88,3.88,0,0,0-.93,1.93c-.61.63-1.48,1.18-1.54,2.09.1.45.49,0,.75.06a.24.24,0,0,1,.2.24l-.61.89c-.32.53.06,1.14.06,1.64a1.1,1.1,0,0,0,1.06.61,8.74,8.74,0,0,0,2.53-.67,5.5,5.5,0,0,1,3-.2A4.1,4.1,0,0,0,70.16,74a1.47,1.47,0,0,1,1,.55,5.21,5.21,0,0,0,4.12,1.64l.14-.08a.24.24,0,0,0-.06-.36l-1-.49c-.67-.43-1.5-1-1.72-1.74a9,9,0,0,0-1-2c-.14-.33-.47-.59-.61-.91,0,0,.08-.1.14-.08a4.37,4.37,0,0,1,2.17,2.33,3.47,3.47,0,0,0,3.35,1.74l.12-.1a.21.21,0,0,0,0-.24ZM60.22,59.6h0v0h0a.2.2,0,0,1-.26,0l0,0v0a12.9,12.9,0,0,0-.67-2.45L59,56.83l-.07-.1-.16-.23a.77.77,0,0,1-.08-.81l0,0a.59.59,0,0,1,.59-.09h0a2.66,2.66,0,0,1,.73.92,4.39,4.39,0,0,1,.31,1.69,5.38,5.38,0,0,1-.18,1.4h0M68,73h0a3.54,3.54,0,0,1-1.26.15h0l-.08,0L66.46,73a.2.2,0,0,1-.07-.23,2,2,0,0,1,1.35-1.27h.15l.15,0a.3.3,0,0,1,.22.25,2.78,2.78,0,0,1,0,.31A1,1,0,0,1,68,73m2.48-5.52-.06.17-.05.18a.4.4,0,0,1-.29.28.24.24,0,0,1-.22,0,.25.25,0,0,1-.1-.21v-.18L69.63,67a1.69,1.69,0,0,0-.27-.7L69.09,66l-.31-.35a1,1,0,0,0-.67-.36,1.13,1.13,0,0,0-.5.35l-.22.27-.19.25c-.07.12-.22.05-.22,0h0v0a1,1,0,0,1-.07-.35,1.32,1.32,0,0,1,.12-.51l.16-.34.19-.4,0,0a.85.85,0,0,0,.17-.32l0-.14.11-.28a.53.53,0,0,1,.78-.3,1.58,1.58,0,0,1,.59.61l.09.15.11.19.24.3a3.21,3.21,0,0,1,1,2.14,2.6,2.6,0,0,1-.06.54"/><path class="cls-10" d="M22.34,76.16a4.1,4.1,0,0,0,1.36-1.64c-.06-.22-.29-.38-.47-.55s-.3,0-.44,0a10.92,10.92,0,0,1-1.4,1c-.2.14-.12.45-.16.67s.24.34.36.47a1.08,1.08,0,0,0,.75,0"/><path class="cls-10" d="M20.21,76.22a1.38,1.38,0,0,0-.75.83c-.1.65,0,1.26-.46,1.72,0,.12-.14.26,0,.38a7,7,0,0,0,1.42.38c.24-.79.42-1.66.71-2.35V77c-.24-.3-.49-.69-.89-.77"/><path class="cls-10" d="M50.95,74c.41.45.39,1.13.85,1.48A2.06,2.06,0,0,0,53.42,75c.26-.22-.12-.51-.16-.77-.26-.38-.08-1.15-.73-1.17a13.08,13.08,0,0,1-1.94.12l-.18.12c-.12.38.45.38.55.73"/><path class="cls-2" d="M143.26.31a1.54,1.54,0,0,0-1.68.33l-9.8,9.8-10-10a1.54,1.54,0,0,0-2.63,1.09V25.11a1.54,1.54,0,1,0,3.09,0V5.27l8.44,8.45a1.55,1.55,0,0,0,2.18,0l8.25-8.26V25.11a1.54,1.54,0,1,0,3.09,0V1.74a1.54,1.54,0,0,0-1-1.43m23.15,23h-14c-1,0-1-.25-1.14-.47a1.33,1.33,0,0,1-.14-.39,1.12,1.12,0,0,1,0-.12h0V14.23h15.08a1.54,1.54,0,1,0,0-3.09H151.07V4.41a1.36,1.36,0,0,1,.2-.58c.18-.21.3-.46,1.34-.49h13.74a1.54,1.54,0,0,0,0-3.09H152.62a4.43,4.43,0,0,0-4,2.06A4.31,4.31,0,0,0,148,4.4V22.33a4.35,4.35,0,0,0,.55,2,4.17,4.17,0,0,0,3.71,2h14.17a1.54,1.54,0,1,0,0-3.09M193.2,3.93a9.84,9.84,0,0,0-8-3.71H172.71a1.55,1.55,0,0,0-1.54,1.54V24.89a1.55,1.55,0,0,0,1.54,1.54h12.18a11.51,11.51,0,0,0,4.15-.93,10.11,10.11,0,0,0,5.87-6.59,21.83,21.83,0,0,0,.78-6,23.81,23.81,0,0,0-.58-5.23,10.36,10.36,0,0,0-1.9-3.74m-.94,12.72c-.08.45-.16.8-.22,1l-.07.26,0,.06a7,7,0,0,1-4.12,4.66,9.06,9.06,0,0,1-2.11.6c-.28,0-.5.06-.64.07H174.25V3.3h10.92a6.72,6.72,0,0,1,5.6,2.54,7.82,7.82,0,0,1,1.06,1.79c.1.24.17.44.21.57l0,.14v0a20.56,20.56,0,0,1,.5,4.54,21.09,21.09,0,0,1-.33,3.75M200.44.22a1.54,1.54,0,0,0-1.54,1.54V24.89a1.54,1.54,0,1,0,3.09,0V1.77A1.55,1.55,0,0,0,200.44.22m31.42,24.07L219.62.93a1.54,1.54,0,0,0-2.73,0L204.8,24a1.55,1.55,0,0,0,2.74,1.43h0L218.26,5l10.86,20.75a1.54,1.54,0,1,0,2.74-1.43"/></g></g></svg>